<?xml version="1.0" encoding="UTF-8"?>
<!DOCTYPE svg PUBLIC "-//W3C//DTD SVG 1.1//EN" "http://www.w3.org/Graphics/SVG/1.1/DTD/svg11.dtd">
<!-- Creator: CorelDRAW -->
<svg xmlns="http://www.w3.org/2000/svg" xml:space="preserve" width="60mm" height="60mm" version="1.1" style="shape-rendering:geometricPrecision; text-rendering:geometricPrecision; image-rendering:optimizeQuality; fill-rule:evenodd; clip-rule:evenodd"
viewBox="0 0 6000 6000"
 xmlns:xlink="http://www.w3.org/1999/xlink"
 xmlns:xodm="http://www.corel.com/coreldraw/odm/2003">
 <defs>
  <style type="text/css">
   <![CDATA[
    .fil0 {fill:#FEFEFE;fill-rule:nonzero}
   ]]>
  </style>
 </defs>
 <g id="Слой_x0020_1">
  <metadata id="CorelCorpID_0Corel-Layer"/>
  <g>
   <path class="fil0" d="M5733.09 1076.08l-533.46 -239.14 0.01 -0.02 1.73 -4.31 1 -3.21 0.55 -2.42 0.26 -1.89 0.09 -1.52 -0.02 -1.22 -0.13 -1.2 -0.24 -1.32 -0.38 -1.49 -0.56 -1.64 -0.77 -1.84 -0.99 -1.93 -1.31 -2.18 -1.54 -2.19 -1.76 -2.17 -1.93 -2.08 -2.09 -1.94 -2.15 -1.75 -2.2 -1.54 -2.15 -1.3 -1.97 -1 -1.85 -0.78 -1.68 -0.57 -1.42 -0.37 -1.28 -0.22 -1.26 -0.14 -1.27 -0.02 -1.53 0.09 -1.83 0.25 -2.39 0.54 -3.23 1.01 -4.32 1.74 -239.16 -533.46 46.24 -18.62 47.27 -14.85 47.87 -10.96 48.09 -7.03 47.87 -3.13 47.45 0.66 46.66 4.32 45.7 7.84 44.44 11.19 42.92 14.29 41.35 17.26 39.69 20.06 37.81 22.66 35.92 25.12 33.97 27.51 31.91 29.76 29.75 31.9 27.52 33.97 25.12 35.93 22.65 37.78 20.07 39.71 17.27 41.38 14.3 42.96 11.16 44.37 7.84 45.64 4.33 46.74 0.66 47.5 -3.15 47.88 -7.02 48.01 -10.95 47.86 -14.86 47.29 -18.63 46.25 0.01 -0.02zm-0.01 0.02c-66.04,147.3 -239.01,213.17 -386.31,147.13 -147.3,-66.04 -213.17,-239.01 -147.13,-386.31l533.44 239.18zm-2431.86 3995.78l1898.41 -4234.94 533.46 239.14 -1898.41 4234.94 0 0 -533.46 -239.14zm533.46 239.14c-66.03,147.31 -238.99,213.19 -386.3,147.16 -147.31,-66.03 -213.19,-238.99 -147.16,-386.3l533.46 239.14zm-1471.87 44.97l517.88 -271.26 -0.01 -0.01 9.71 17.02 10.19 15.15 10.7 13.64 11.21 12.3 11.69 11.1 12.21 9.99 12.75 8.99 13.35 8.03 13.87 7.09 14.37 6.12 14.86 5.16 15.34 4.19 15.68 3.18 15.97 2.13 16.2 1.1 16.2 0.04 16.17 -1.03 16.08 -2.08 15.85 -3.12 15.42 -4.11 15.04 -5.12 14.56 -6.07 13.97 -6.99 13.42 -7.92 12.79 -8.82 12.19 -9.75 11.59 -10.74 10.99 -11.77 10.41 -12.94 9.87 -14.3 9.25 -15.75 8.64 -17.56 533.46 239.14 -27.24 55.34 -30.87 52.65 -34.17 49.58 -37.31 46.44 -40.15 43.07 -42.67 39.56 -44.91 35.99 -46.91 32.38 -48.6 28.72 -50.09 25.09 -51.28 21.41 -52.28 17.8 -53.14 14.19 -53.67 10.58 -54.12 7.02 -54.43 3.45 -54.56 -0.12 -54.42 -3.7 -54.25 -7.29 -53.88 -10.92 -53.26 -14.55 -52.52 -18.26 -51.53 -21.98 -50.27 -25.71 -48.77 -29.45 -47.05 -33.19 -45.01 -36.89 -42.69 -40.52 -40.05 -44.04 -37.18 -47.44 -34.01 -50.67 -30.57 -53.56 -0.01 -0.01zm0.01 0.01c-74.91,-143 -19.71,-319.66 123.29,-394.57 143,-74.91 319.66,-19.71 394.57,123.29l-517.86 271.28zm53.49 -1157.84l464.38 886.57 -517.88 271.26 -464.38 -886.57 517.87 -271.27 0.01 0.01zm-517.88 271.26c-74.9,-143 -19.69,-319.67 123.31,-394.57 143,-74.9 319.67,-19.69 394.57,123.31l-517.88 271.26zm-369.9 -369.91l271.26 -517.86 0.02 0 24.54 13.16 24.28 13.62 23.98 14.05 23.62 14.46 23.42 14.95 23.07 15.36 22.69 15.72 22.44 16.18 22.11 16.6 21.74 16.97 21.46 17.4 21.06 17.77 20.77 18.17 20.4 18.58 20.02 18.9 19.72 19.36 19.24 19.62 18.95 20.04 18.57 20.41 18.12 20.69 17.83 21.13 17.4 21.46 16.97 21.74 16.6 22.11 16.18 22.44 15.75 22.73 15.36 23.07 14.91 23.38 14.46 23.62 14.05 23.98 13.62 24.28 13.16 24.55 -517.86 271.28 -7.9 -14.73 -8.16 -14.56 -8.43 -14.36 -8.72 -14.26 -8.95 -14.02 -9.18 -13.81 -9.47 -13.67 -9.7 -13.44 -9.94 -13.25 -10.21 -13.08 -10.42 -12.84 -10.63 -12.61 -10.96 -12.49 -11.11 -12.23 -11.35 -12 -11.64 -11.86 -11.76 -11.54 -12.04 -11.38 -12.22 -11.12 -12.43 -10.89 -12.68 -10.69 -12.84 -10.42 -13.08 -10.21 -13.25 -9.94 -13.44 -9.7 -13.71 -9.5 -13.81 -9.2 -13.98 -8.91 -14.26 -8.72 -14.36 -8.43 -14.56 -8.16 -14.74 -7.9 0.02 0zm-0.02 0c-143,-74.91 -198.19,-251.58 -123.28,-394.58 74.91,-143 251.58,-198.19 394.58,-123.28l-271.3 517.86zm-615.28 -982.25l886.56 464.39 -271.26 517.86 -886.56 -464.39 271.26 -517.86zm-271.26 517.86c-143,-74.9 -198.2,-251.56 -123.3,-394.56 74.9,-143 251.56,-198.2 394.56,-123.3l-271.26 517.86zm44.97 -1471.85l239.14 533.46 0 0 -17.56 8.64 -15.77 9.26 -14.29 9.86 -12.91 10.39 -11.79 11.01 -10.76 11.62 -9.76 12.18 -8.8 12.77 -7.92 13.42 -7 13.98 -6.06 14.54 -5.12 15.04 -4.11 15.43 -3.12 15.85 -2.08 16.08 -1.03 16.17 0.04 16.24 1.09 16.16 2.14 15.93 3.18 15.72 4.19 15.34 5.16 14.86 6.12 14.37 7.08 13.86 8.03 13.33 8.99 12.75 9.99 12.21 11.12 11.71 12.3 11.21 13.64 10.7 15.15 10.19 17.01 9.71 -271.26 517.86 -53.57 -30.57 -50.67 -34.01 -47.44 -37.18 -44.04 -40.05 -40.5 -42.67 -36.91 -45.01 -33.19 -47.05 -29.45 -48.77 -25.72 -50.28 -21.98 -51.53 -18.26 -52.52 -14.55 -53.26 -10.92 -53.84 -7.3 -54.29 -3.69 -54.46 -0.12 -54.52 3.45 -54.43 7.02 -54.12 10.58 -53.67 14.19 -53.13 17.8 -52.3 21.42 -51.28 25.08 -50.08 28.72 -48.6 32.4 -46.93 36 -44.92 39.54 -42.64 43.05 -40.13 46.45 -37.33 49.61 -34.18 52.63 -30.86 55.34 -27.24 0 0zm0 0c147.31,-66.03 320.27,-0.15 386.3,147.16 66.03,147.31 0.15,320.27 -147.16,386.3l-239.14 -533.46zm4474.07 -1364.96l-4234.93 1898.42 -239.14 -533.46 4234.93 -1898.42 239.15 533.46 -0.01 0zm-239.14 -533.46c147.31,-66.03 320.27,-0.15 386.3,147.16 66.03,147.31 0.15,320.27 -147.16,386.3l-239.14 -533.46z"/>
  </g>
 </g>
</svg>
